<svg id="spreading" enable-background="new 0 0 300 300" height="512" viewBox="0 0 300 300" width="512" xmlns="http://www.w3.org/2000/svg"><g><circle cx="130" cy="126" fill="#ffe5d2" r="86"/><circle cx="42" cy="174" fill="#4c241d" r="6"/><g><circle cx="150.041" cy="153.631" fill="#c1dbdc" r="81.631"/><path d="m150.039 239.262c-47.215 0-85.629-38.414-85.629-85.631s38.414-85.631 85.629-85.631c47.219 0 85.633 38.414 85.633 85.631s-38.414 85.631-85.633 85.631zm0-163.262c-42.805 0-77.629 34.824-77.629 77.631s34.824 77.631 77.629 77.631c42.809 0 77.633-34.824 77.633-77.631s-34.824-77.631-77.633-77.631z" fill="#4c241d"/></g><g><path d="m163.666 73.154c-.117 10.057.614 22.748 3.917 34.286 1.132 3.954-.814 8.143-4.492 9.982l-7.464 3.732c-3.336 1.668-7.365 1.014-10.002-1.623-3.144-3.144-8.121-3.497-11.677-.83l-22.711 17.033c-6.371 4.779-8.97 13.098-6.452 20.654l2.133 6.401c2.191 6.574 7.737 11.47 14.532 12.829l3.162.633c6.41 1.282 11.421 6.293 12.703 12.703l1.792 8.958c.665 3.325 2.624 6.25 5.445 8.131l1.714 1.143c5.071 3.381 11.823 2.712 16.133-1.597l.123-.123c4.235-4.236 6.006-10.28 4.959-16.178-1.219-6.869-1.732-16.844 2.238-26.687 2.65-6.57 1.658-14.068-2.272-19.962-.062-.093-.095-.142-.095-.142-1.451-2.177-1.164-5.013.652-6.828l2.143-2.143c2.765-2.764 6.988-3.45 10.485-1.702l6.915 3.458c4.554 2.277 9.727 3.001 14.731 2.063l26.575-4.983c-8.206-30.487-33.618-53.901-65.187-59.208z" fill="#a9ba5a"/><path d="m153.301 213.311c-3.219 0-6.441-.92-9.254-2.797l-1.715-1.143c-3.73-2.486-6.266-6.277-7.145-10.676l-1.793-8.957c-.969-4.842-4.723-8.596-9.566-9.566l-3.164-.633c-8.18-1.635-14.902-7.568-17.539-15.484l-2.133-6.402c-3.07-9.203.082-19.299 7.848-25.119l22.711-17.031c5.109-3.836 12.379-3.326 16.902 1.201 1.422 1.42 3.586 1.77 5.383.873l7.465-3.732c2.004-1.002 3.027-3.232 2.438-5.303-2.859-9.986-4.227-21.908-4.07-35.434.016-1.168.539-2.273 1.434-3.021.898-.748 2.059-1.074 3.23-.877 32.871 5.527 59.715 29.906 68.387 62.111.289 1.076.117 2.225-.477 3.168s-1.555 1.598-2.648 1.803l-26.574 4.984c-5.824 1.092-11.957.236-17.262-2.418l-6.914-3.457c-1.953-.975-4.316-.6-5.867.953l-2.145 2.143c-.473.471-.535 1.205-.152 1.781 4.859 7.283 5.852 16.135 2.75 23.82-3.648 9.045-3.105 18.311-2.012 24.49 1.289 7.25-.98 14.617-6.066 19.705-3.322 3.318-7.681 5.018-12.052 5.018zm-14-92.389c-1.035 0-2.074.322-2.949.979l-22.715 17.033c-5.004 3.752-7.035 10.258-5.059 16.189l2.133 6.402c1.734 5.199 6.148 9.096 11.523 10.17l3.164.633c8.02 1.605 14.238 7.824 15.84 15.842l1.793 8.957c.461 2.303 1.789 4.287 3.738 5.588l1.715 1.143c3.477 2.318 8.133 1.854 11.086-1.098 3.363-3.365 4.801-8.094 3.973-12.773-1.281-7.211-1.891-18.076 2.465-28.883 2.113-5.232 1.406-11.307-1.887-16.248-2.578-3.869-2.098-8.861 1.051-12.016l2.148-2.146c3.988-3.986 10.055-4.971 15.102-2.449l6.914 3.457c3.746 1.879 8.094 2.48 12.207 1.711l22.207-4.164c-8.465-25.617-29.824-45.109-56.07-51.213.188 10.748 1.445 20.252 3.75 28.305 1.652 5.77-1.102 11.936-6.551 14.66l-7.465 3.732c-4.891 2.439-10.762 1.486-14.617-2.373-.953-.952-2.223-1.438-3.496-1.438z" fill="#4c241d"/></g><g fill="#4c241d"><circle cx="48" cy="148" r="4"/><path d="m256 199.512c-2.211 0-4-1.791-4-4v-5.66c0-2.209 1.789-4 4-4s4 1.791 4 4v5.66c0 2.209-1.789 4-4 4z"/><path d="m256 222.148c-2.211 0-4-1.791-4-4v-5.66c0-2.209 1.789-4 4-4s4 1.791 4 4v5.66c0 2.209-1.789 4-4 4z"/><path d="m247.512 208h-5.66c-2.211 0-4-1.791-4-4s1.789-4 4-4h5.66c2.211 0 4 1.791 4 4s-1.789 4-4 4z"/><path d="m270.148 208h-5.66c-2.211 0-4-1.791-4-4s1.789-4 4-4h5.66c2.211 0 4 1.791 4 4s-1.789 4-4 4z"/></g><g><circle cx="60" cy="60" fill="#ffce56" r="32"/><path d="m60 96c-19.852 0-36-16.15-36-36s16.148-36 36-36 36 16.15 36 36-16.148 36-36 36zm0-64c-15.438 0-28 12.561-28 28s12.562 28 28 28 28-12.561 28-28-12.562-28-28-28z" fill="#4c241d"/></g><g><path d="m83.739 81.405c-1.285-9.807-9.582-17.405-19.739-17.405h-8c-10.157 0-18.454 7.598-19.739 17.405 5.857 6.491 14.308 10.595 23.739 10.595s17.882-4.104 23.739-10.595z" fill="#bf7e68"/><path d="m60 96c-10.141 0-19.875-4.344-26.707-11.916-.785-.869-1.148-2.039-.996-3.199 1.558-11.906 11.75-20.885 23.703-20.885h8c11.953 0 22.145 8.979 23.703 20.885.152 1.16-.211 2.33-.996 3.199-6.832 7.572-16.566 11.916-26.707 11.916zm-19.43-15.889c5.211 5.035 12.192 7.889 19.43 7.889s14.219-2.854 19.43-7.889c-1.758-7.019-8.094-12.111-15.43-12.111h-8c-7.336 0-13.672 5.092-15.43 12.111z" fill="#4c241d"/></g><g><ellipse cx="60" cy="54" fill="#ffded5" rx="16" ry="18"/><path d="m60 76c-11.027 0-20-9.869-20-22s8.973-22 20-22 20 9.869 20 22-8.973 22-20 22zm0-36c-6.617 0-12 6.281-12 14s5.383 14 12 14 12-6.281 12-14-5.383-14-12-14z" fill="#4c241d"/></g><g><circle cx="240" cy="60" fill="#e66353" r="32"/><path d="m240 96c-19.852 0-36-16.15-36-36s16.148-36 36-36 36 16.15 36 36-16.148 36-36 36zm0-64c-15.438 0-28 12.561-28 28s12.562 28 28 28 28-12.561 28-28-12.562-28-28-28z" fill="#4c241d"/></g><g><path d="m263.739 81.405c-1.285-9.807-9.582-17.405-19.739-17.405h-8c-10.157 0-18.454 7.598-19.739 17.405 5.857 6.491 14.308 10.595 23.739 10.595s17.882-4.104 23.739-10.595z" fill="#26deeb"/><path d="m240 96c-10.141 0-19.875-4.344-26.707-11.916-.785-.869-1.148-2.039-.996-3.199 1.558-11.906 11.75-20.885 23.703-20.885h8c11.953 0 22.145 8.979 23.703 20.885.152 1.16-.211 2.33-.996 3.199-6.832 7.572-16.566 11.916-26.707 11.916zm-19.43-15.889c5.211 5.035 12.192 7.889 19.43 7.889s14.219-2.854 19.43-7.889c-1.758-7.019-8.094-12.111-15.43-12.111h-8c-7.336 0-13.672 5.092-15.43 12.111z" fill="#4c241d"/></g><g><ellipse cx="240" cy="54" fill="#ffded5" rx="16" ry="18"/><path d="m240 76c-11.027 0-20-9.869-20-22s8.973-22 20-22 20 9.869 20 22-8.973 22-20 22zm0-36c-6.617 0-12 6.281-12 14s5.383 14 12 14 12-6.281 12-14-5.383-14-12-14z" fill="#4c241d"/></g><g><circle cx="200" cy="240" fill="#bd53b5" r="32"/><path d="m200 276c-19.852 0-36-16.15-36-36s16.148-36 36-36 36 16.15 36 36-16.148 36-36 36zm0-64c-15.438 0-28 12.561-28 28s12.562 28 28 28 28-12.561 28-28-12.562-28-28-28z" fill="#4c241d"/></g><g><path d="m223.739 261.405c-1.285-9.807-9.582-17.405-19.739-17.405h-8c-10.157 0-18.454 7.598-19.739 17.405 5.857 6.491 14.308 10.595 23.739 10.595s17.882-4.104 23.739-10.595z" fill="#ffce56"/><path d="m200 276c-10.141 0-19.875-4.344-26.707-11.916-.785-.869-1.148-2.039-.996-3.199 1.558-11.906 11.75-20.885 23.703-20.885h8c11.953 0 22.145 8.979 23.703 20.885.152 1.16-.211 2.33-.996 3.199-6.832 7.572-16.566 11.916-26.707 11.916zm-19.43-15.889c5.211 5.035 12.192 7.889 19.43 7.889s14.219-2.854 19.43-7.889c-1.758-7.019-8.094-12.111-15.43-12.111h-8c-7.336 0-13.672 5.092-15.43 12.111z" fill="#4c241d"/></g><g><ellipse cx="200" cy="234" fill="#ffded5" rx="16" ry="18"/><path d="m200 256c-11.027 0-20-9.869-20-22s8.973-22 20-22 20 9.869 20 22-8.973 22-20 22zm0-36c-6.617 0-12 6.281-12 14s5.383 14 12 14 12-6.281 12-14-5.383-14-12-14z" fill="#4c241d"/></g><path d="m240 120h-52c-2.211 0-4-1.791-4-4s1.789-4 4-4h48v-8c0-2.209 1.789-4 4-4s4 1.791 4 4v12c0 2.209-1.789 4-4 4z" fill="#4c241d"/><path d="m156 252h-28c-2.211 0-4-1.791-4-4v-84c0-2.209 1.789-4 4-4s4 1.791 4 4v80h24c2.211 0 4 1.791 4 4s-1.789 4-4 4z" fill="#4c241d"/><path d="m136 132h-76c-2.211 0-4-1.791-4-4v-24c0-2.209 1.789-4 4-4s4 1.791 4 4v20h72c2.211 0 4 1.791 4 4s-1.789 4-4 4z" fill="#4c241d"/></g></svg>