<svg id="Layer_1" data-name="Layer 1" xmlns="http://www.w3.org/2000/svg" viewBox="0 0 55 55"><defs><style>.cls-1{fill:none;}.cls-2{fill:#e8834d;}.cls-3{fill:#d66e41;}.cls-4{fill:#365e7d;}.cls-5{fill:#2b4d66;}.cls-6{fill:#407093;}.cls-7{fill:#ffe27a;}.cls-8{fill:#f9cf58;}</style></defs><rect class="cls-1" width="55" height="55"/><path class="cls-2" d="M36.18,5.89a10.39,10.39,0,0,0-2.39-1.28,17.66,17.66,0,0,0-12.59,0,10.18,10.18,0,0,0-2.38,1.28,1.8,1.8,0,0,0-.72,1.43v2.84l1.81,1,1.81-1V8.35A12.71,12.71,0,0,1,27.5,7.06a12.71,12.71,0,0,1,5.78,1.29v1.81l1.81,1,1.8-1V7.32a1.76,1.76,0,0,0-.71-1.43Z"/><path class="cls-3" d="M18.1,10.16v2l1.81,1,1.81-1v-2Z"/><path class="cls-3" d="M36.9,10.16H33.28v2l1.81,1,1.81-1Z"/><path class="cls-4" d="M1.42,32V48.1a3.45,3.45,0,0,0,3.45,3.45H50.13a3.45,3.45,0,0,0,3.45-3.45V32Z"/><path class="cls-5" d="M1.42,30.05v2c2.87,2.28,10.45,6.7,26.08,6.7S50.71,34.32,53.58,32v-2Z"/><path class="cls-6" d="M1.27,28.9C4,31.13,11.59,35.71,27.5,35.71S51,31.13,53.73,28.9c.8-.66,1.27-2.61,1.27-3.65V15.61a3.45,3.45,0,0,0-3.45-3.45H3.45A3.45,3.45,0,0,0,0,15.61v9.64C0,26.29.47,28.24,1.27,28.9Z"/><path class="cls-4" d="M53.73,27.93C51,30.17,43.41,34.75,27.5,34.75S4,30.17,1.27,27.93A3.48,3.48,0,0,1,0,25.25v2a3.48,3.48,0,0,0,1.27,2.68C4,32.16,11.59,36.74,27.5,36.74S51,32.16,53.73,29.93A3.48,3.48,0,0,0,55,27.25v-2A3.48,3.48,0,0,1,53.73,27.93Z"/><path class="cls-7" d="M27.5,40.07c1.79,0,3.23-1.33,3.23-4.2v-2a1.15,1.15,0,0,0-1.15-1.15H25.42a1.15,1.15,0,0,0-1.15,1.15v2C24.27,38.74,25.71,40.07,27.5,40.07Z"/><path class="cls-8" d="M27.5,39.1a3.23,3.23,0,0,1-3.23-3.23v2a3.23,3.23,0,0,0,6.46,0v-2A3.23,3.23,0,0,1,27.5,39.1Z"/></svg>