<svg id="Layer_1" data-name="Layer 1" xmlns="http://www.w3.org/2000/svg" viewBox="0 0 55 55"><defs><style>.cls-1{fill:#ff507d;}.cls-2{fill:#d23c69;}.cls-3{fill:#a83054;}.cls-4{fill:#e8834d;}.cls-5{fill:#d66e41;}.cls-6{fill:#365e7d;}.cls-7{fill:#2b4d66;}.cls-8{fill:#f1d0a5;}.cls-9{fill:#f1b986;}.cls-10{fill:#d5985c;}.cls-11{fill:none;}</style></defs><path class="cls-1" d="M54.94,26a1.11,1.11,0,0,1-1,1.46H32.63a1.06,1.06,0,0,1-.6-.18,1.11,1.11,0,0,1-.51-.93v-19H53.89a1.1,1.1,0,0,1,1,1.45l-2.75,8.26a1.05,1.05,0,0,0,0,.7Z"/><path class="cls-2" d="M31.52,25.93H43.37a2.23,2.23,0,0,0,2.24-2.23V7.38H31.52Z"/><path class="cls-3" d="M42.82,23.48a1.08,1.08,0,0,1-.41.25L32,27.32a1.11,1.11,0,0,1-.51-.93V23.48Z"/><path class="cls-1" d="M42,3.35a1.11,1.11,0,0,1,1.11,1.11V22.69a1.11,1.11,0,0,1-.33.79H24.15V3.35Z"/><path class="cls-4" d="M3.58,32.87V49.76H1.11A1.11,1.11,0,0,1,0,48.65V34a1.11,1.11,0,0,1,1.11-1.1Z"/><path class="cls-5" d="M0,41.35v7.3a1.11,1.11,0,0,0,1.11,1.11H3.58V43.47A9.12,9.12,0,0,1,0,41.35Z"/><path class="cls-6" d="M23,55H20.79a1.12,1.12,0,0,1-1.12-1.12V1.12A1.12,1.12,0,0,1,20.79,0H23a1.12,1.12,0,0,1,1.12,1.12V53.88A1.12,1.12,0,0,1,23,55Z"/><path class="cls-7" d="M23,55H20.79a1.12,1.12,0,0,1-1.12-1.12V29.07h4.48V53.88A1.12,1.12,0,0,1,23,55Z"/><path class="cls-8" d="M30.8,36.33H28.62A2.23,2.23,0,0,0,30.85,34a2.26,2.26,0,0,0-2.29-2.15H19.67V27.39h-3a4.42,4.42,0,0,0-2.69.9L9.14,32a4.45,4.45,0,0,1-2.69.91H3.58V49.76H26.33a2.28,2.28,0,0,0,2.29-2.16,2.25,2.25,0,0,0-2.24-2.32h2.18a2.26,2.26,0,0,0,2.29-2.15,2.23,2.23,0,0,0-2.23-2.32h2.23a2.23,2.23,0,0,0,2.24-2.31,2.28,2.28,0,0,0-2.29-2.16Z"/><path class="cls-9" d="M30.8,36.33H28.62A2.23,2.23,0,0,0,30.85,34a2.26,2.26,0,0,0-2.29-2.15H26.17a19,19,0,0,1-8.47,9.4c-4.88,2.82-10.19,3.5-14.12,2.21v6.29H26.33a2.28,2.28,0,0,0,2.29-2.16,2.25,2.25,0,0,0-2.24-2.32h2.18a2.26,2.26,0,0,0,2.29-2.15,2.23,2.23,0,0,0-2.23-2.32h2.23a2.23,2.23,0,0,0,2.24-2.31,2.28,2.28,0,0,0-2.29-2.16Z"/><path class="cls-10" d="M30.78,34.67a2.24,2.24,0,0,1-2.16,1.66H19.67a.83.83,0,0,1,0-1.66Z"/><path class="cls-10" d="M33,39.15a2.23,2.23,0,0,1-2.16,1.65H19.67a.83.83,0,0,1,0-1.66Z"/><path class="cls-10" d="M30.78,43.61a2.3,2.3,0,0,1-2.22,1.66H19.68a.83.83,0,1,1,0-1.66Z"/><rect class="cls-11" width="55" height="55"/></svg>