<svg id="Layer_1" data-name="Layer 1" xmlns="http://www.w3.org/2000/svg" viewBox="0 0 55 55"><defs><style>.cls-1{fill:#5a4146;}.cls-2{fill:#694b4b;}.cls-3{fill:#e6af78;}.cls-4{fill:#d29b6e;}.cls-5{fill:#707487;}.cls-6{fill:#afb9d2;}.cls-7{fill:#f0c087;}.cls-8{fill:#c7cfe2;}.cls-9{fill:#959cb5;}.cls-10{fill:#ff507d;}.cls-11{fill:#5b5d6e;}.cls-12{fill:#d23c69;}.cls-13{fill:none;}</style></defs><path class="cls-1" d="M39.92,24.4V25a7.1,7.1,0,0,0,.36,2.24l1.41,4.23h2.66V21.73H42.58A2.67,2.67,0,0,0,39.92,24.4Z"/><path class="cls-2" d="M52.07,26.24l-1.51,5.25-7.09-6.21a1.78,1.78,0,0,1-1.78-1.77h0a2.67,2.67,0,0,1,2.66-2.66h6.21a1.78,1.78,0,0,1,1.78,1.77v1.67A7.17,7.17,0,0,1,52.07,26.24Z"/><rect class="cls-3" x="43.47" y="34.15" width="5.32" height="3.93"/><path class="cls-4" d="M43.47,35.78a6.94,6.94,0,0,0,5.32,0V34.15H43.47v1.63Z"/><path class="cls-5" d="M53.07,37.53l-4.28-1.22-2.66,1.76-2.66-1.76-4.28,1.22a2.66,2.66,0,0,0-1.93,2.56v6.48a.89.89,0,0,0,.89.89h16a.89.89,0,0,0,.89-.89V40.09A2.66,2.66,0,0,0,53.07,37.53Z"/><polygon class="cls-6" points="47.02 47.46 45.24 47.46 45.69 38.08 46.57 38.08 47.02 47.46"/><path class="cls-7" d="M46.13,35h0a5.32,5.32,0,0,1-5.32-5.32v-1a1.77,1.77,0,0,1,.52-1.26l1.6-1.6a1.77,1.77,0,0,1,1.29-.53c2.84.09,5.35.7,6.72,2a1.74,1.74,0,0,1,.51,1.26v1.13A5.32,5.32,0,0,1,46.13,35Z"/><path class="cls-3" d="M43.47,28.9a1.77,1.77,0,0,1,1.88-1.77,18.72,18.72,0,0,1,6.08,1.19,1.79,1.79,0,0,0-.49-1c-1.37-1.34-3.88-1.95-6.72-2h0a1.77,1.77,0,0,0-1.29.53l-1.6,1.6a1.77,1.77,0,0,0-.52,1.26v1a5.32,5.32,0,0,0,3.84,5.11,5.27,5.27,0,0,1-1.18-3.34V28.9Z"/><path class="cls-8" d="M51.45,42.73a2.65,2.65,0,0,1,.78-1.88l2.28-2.29A2.65,2.65,0,0,1,55,40.09v6.48a.89.89,0,0,1-.89.89H51.45V42.73Z"/><path class="cls-9" d="M46.57,39.85h-.88a.45.45,0,0,1-.45-.44V38.08H47v1.33A.45.45,0,0,1,46.57,39.85Z"/><path class="cls-8" d="M46.13,38.07l-1.5,1.15a.53.53,0,0,1-.79-.17l-1.35-2.46.54-.83a.36.36,0,0,1,.54-.06Z"/><path class="cls-8" d="M46.13,38.07l1.5,1.15a.53.53,0,0,0,.79-.17l1.35-2.46-.54-.83a.36.36,0,0,0-.54-.06Z"/><path class="cls-1" d="M15.88,34.67a31.92,31.92,0,0,1-1.49-7.26A6.43,6.43,0,0,0,8.08,21.2a6.44,6.44,0,0,0-6.31,6.21A31.92,31.92,0,0,1,.28,34.67.89.89,0,0,0,.74,35.8a16.87,16.87,0,0,0,4.64,1.37h5.4a17,17,0,0,0,4.64-1.37A.89.89,0,0,0,15.88,34.67Z"/><path class="cls-2" d="M15.42,35.8a.89.89,0,0,0,.46-1.13,31.92,31.92,0,0,1-1.49-7.26A6.43,6.43,0,0,0,8.08,21.2h0a2.71,2.71,0,0,0-1.31,5l.22.12L9,37.17h1.8A17,17,0,0,0,15.42,35.8Z"/><path class="cls-3" d="M14.5,39l-2.87-1.44a1.73,1.73,0,0,1-1-1.58V33.27H5.32v2.66a1.77,1.77,0,0,1-1,1.58L1.47,39A2.66,2.66,0,0,0,0,41.33v5.24a.89.89,0,0,0,.89.89H15.08a.89.89,0,0,0,.89-.89V41.33A2.66,2.66,0,0,0,14.5,39Z"/><path class="cls-4" d="M8,36.81a7,7,0,0,0,2.71-.54,2,2,0,0,1,0-.34V33.27H5.32v2.66a1.33,1.33,0,0,1-.05.34A7,7,0,0,0,8,36.81Z"/><path class="cls-5" d="M14.5,39l-2.05-1a5.32,5.32,0,0,1-8.93,0l-2,1A2.66,2.66,0,0,0,0,41.33v5.24a.89.89,0,0,0,.89.89H15.08a.89.89,0,0,0,.89-.89V41.33A2.66,2.66,0,0,0,14.5,39Z"/><path class="cls-7" d="M8,35H8a5.31,5.31,0,0,1-5.27-4.63.91.91,0,0,1,.47-.93,7.07,7.07,0,0,0,1.57-1.06A5.16,5.16,0,0,0,6,26.83a.88.88,0,0,1,1-.49,15.3,15.3,0,0,1,6,3.09.87.87,0,0,1,.3.71A5.32,5.32,0,0,1,8,35Z"/><path class="cls-3" d="M13,29.43a15.16,15.16,0,0,0-6-3.09.88.88,0,0,0-1,.49A5.09,5.09,0,0,1,5.15,28h0a3.85,3.85,0,0,1-.4.41,7.07,7.07,0,0,1-1.57,1.06.91.91,0,0,0-.47.93A5.34,5.34,0,0,0,7.18,35a3.87,3.87,0,0,1-1.86-3.49V30.23c.2-.15.41-.3.61-.48a7.27,7.27,0,0,0,1.27-1.5,13.35,13.35,0,0,1,4.62,2.52c.17.14.59.53,1.08,1a5.19,5.19,0,0,0,.39-1.62A.84.84,0,0,0,13,29.43Z"/><path class="cls-8" d="M.54,39.73A2.66,2.66,0,0,0,0,41.33v5.24a.89.89,0,0,0,.89.89H3.55V43a1.79,1.79,0,0,0-.67-1.39Z"/><path class="cls-10" d="M40.24,37.74,32.82,35,27.5,36.81,22.18,35l-7.42,2.7a3.54,3.54,0,0,0-2.34,3.33v5.5a.89.89,0,0,0,.89.89H41.69a.89.89,0,0,0,.89-.89v-5.5A3.54,3.54,0,0,0,40.24,37.74Z"/><polygon class="cls-5" points="26.57 38.59 25.73 47.46 29.27 47.46 28.43 38.59 26.57 38.59"/><path class="cls-11" d="M28.43,39.81H26.57a.62.62,0,0,1-.62-.62V36.81h3.1v2.38A.62.62,0,0,1,28.43,39.81Z"/><path class="cls-12" d="M41.63,38.66a3.57,3.57,0,0,1,.95,2.41v5.5a.89.89,0,0,1-.89.89H37.26v-3a3.54,3.54,0,0,1,1-2.51Z"/><path class="cls-1" d="M37.26,16.75V9.31a1.78,1.78,0,0,0-1.78-1.77H24.84a7.1,7.1,0,0,0-7.1,7.1v2.11a8.88,8.88,0,0,0,.46,2.8l.29.89a2.64,2.64,0,0,1,.14.84v.45H36.37v-.45a2.64,2.64,0,0,1,.14-.84l.29-.89A8.88,8.88,0,0,0,37.26,16.75Z"/><path class="cls-2" d="M22.18,11.14a3.61,3.61,0,0,0,3.6,3.61h.5l.24,7h9.85v-.45a2.64,2.64,0,0,1,.14-.84l.29-.89a8.88,8.88,0,0,0,.46-2.8V9.31a1.78,1.78,0,0,0-1.78-1.77h-9.7A3.6,3.6,0,0,0,22.18,11.14Z"/><rect class="cls-3" x="22.18" y="28.83" width="10.65" height="7.98"/><path class="cls-4" d="M22.18,31.83a10.55,10.55,0,0,0,10.64,0v-3H22.18v3Z"/><path class="cls-12" d="M27.5,36.81l-2.83,2.83a.88.88,0,0,1-1.33-.09L20.4,35.69l.77-1.62a.89.89,0,0,1,1.27-.37Z"/><path class="cls-12" d="M27.5,36.81l2.83,2.83a.88.88,0,0,0,1.33-.09l2.94-3.86-.77-1.62a.89.89,0,0,0-1.27-.37Z"/><path class="cls-7" d="M27.5,31.49h0a8.87,8.87,0,0,1-8.87-8.87v-1a1.77,1.77,0,0,1,.52-1.25l.73-.74a1.73,1.73,0,0,0,.52-1.25V16.21a.88.88,0,0,1,.68-.86c2.1-.5,8.63-1.67,13.07,1.6a1.13,1.13,0,0,1,.45.92v.47a1.73,1.73,0,0,0,.52,1.25l.73.74a1.77,1.77,0,0,1,.52,1.25v1A8.87,8.87,0,0,1,27.5,31.49Z"/><path class="cls-3" d="M34.15,17c-3.13-2.3-7.28-2.4-10.2-2.09a24.54,24.54,0,0,0-2.87.49.88.88,0,0,0-.68.86v2.13a1.73,1.73,0,0,1-.52,1.25l-.73.74a1.77,1.77,0,0,0-.52,1.25v1a8.87,8.87,0,0,0,7.8,8.8A8.83,8.83,0,0,1,24,25.28V18.8A1.77,1.77,0,0,1,25.51,17c2.13-.27,6-.43,9.09,1.3v-.47A1.13,1.13,0,0,0,34.15,17Z"/><path class="cls-12" d="M13.37,38.66a3.57,3.57,0,0,0-.95,2.41v5.5a.89.89,0,0,0,.89.89h4.43v-3a3.54,3.54,0,0,0-1-2.51Z"/><rect class="cls-13" width="55" height="55"/></svg>