<?xml version="1.0" standalone="no"?>
<!DOCTYPE svg PUBLIC "-//W3C//DTD SVG 20010904//EN"
 "http://www.w3.org/TR/2001/REC-SVG-20010904/DTD/svg10.dtd">
<svg version="1.0" xmlns="http://www.w3.org/2000/svg"
 width="225.000000pt" height="224.000000pt" viewBox="0 0 225.000000 224.000000"
 preserveAspectRatio="xMidYMid meet">
<metadata>
Created by potrace 1.10, written by Peter Selinger 2001-2011
</metadata>
<g transform="translate(0.000000,224.000000) scale(0.100000,-0.100000)"
fill="#000000" stroke="none">
<path d="M1463 1860 c41 -48 57 -92 57 -158 0 -23 5 -50 11 -60 9 -15 7 -26
-13 -58 -29 -45 -55 -70 -65 -60 -4 3 3 16 14 29 20 21 21 24 6 67 -8 25 -18
50 -22 55 -3 6 7 -4 22 -22 32 -36 47 -42 47 -16 0 9 -3 13 -6 10 -4 -4 -19
13 -35 38 -27 42 -80 85 -125 99 -15 5 -7 -8 26 -41 53 -53 76 -113 66 -171
-7 -46 -25 -64 -108 -107 -67 -35 -86 -50 -116 -87 -17 -21 -34 -81 -21 -73 5
4 12 -1 15 -10 4 -10 13 -13 25 -10 25 8 24 -7 0 -29 -17 -15 -18 -22 -8 -40
7 -11 15 -23 18 -26 14 -10 29 -87 29 -143 0 -52 -21 -135 -53 -209 -19 -44
-26 -22 -12 34 8 28 12 54 11 57 -2 3 -6 29 -9 57 -4 28 -13 70 -23 93 -17 42
-69 95 -85 86 -9 -6 -58 22 -71 40 -5 6 -8 5 -8 -2 0 -19 -54 -16 -80 5 -14
12 -19 23 -14 36 6 15 14 17 48 12 76 -12 119 -8 166 14 27 12 36 45 20 65
-10 12 59 95 80 95 18 0 11 83 -10 118 -25 41 -44 42 -23 1 28 -55 0 -135 -58
-168 -22 -12 -30 -12 -60 3 -50 23 -73 67 -65 122 3 24 4 44 1 44 -11 0 -30
-50 -35 -94 l-5 -49 -52 47 c-29 26 -55 56 -58 66 -9 29 26 99 77 153 24 26
43 47 41 47 -10 0 -71 -36 -101 -58 -20 -15 -29 -28 -22 -32 12 -7 -1 -53 -18
-64 -27 -16 24 175 61 229 l20 30 -31 -29 c-77 -71 -102 -186 -61 -276 34 -76
77 -110 187 -150 53 -19 61 -25 45 -33 -10 -5 -28 -19 -40 -30 -12 -11 -46
-24 -74 -28 -67 -11 -75 -19 -59 -59 15 -36 43 -50 104 -50 55 0 81 -25 71
-69 -10 -47 -61 -81 -121 -81 -71 -1 -133 -17 -177 -47 -20 -14 -36 -27 -35
-29 2 -1 25 2 51 8 126 27 281 -59 333 -185 10 -26 23 -47 27 -47 27 0 98 127
121 217 24 90 20 176 -9 247 -13 33 -23 61 -22 61 1 1 21 7 44 13 38 11 83 51
83 73 0 18 -95 9 -127 -11 l-33 -20 0 23 c0 31 30 56 125 106 177 91 230 155
222 271 -5 88 -42 145 -127 195 -8 5 2 -11 23 -35z m-433 -456 c0 -8 -4 -12
-10 -9 -5 3 -10 10 -10 16 0 5 5 9 10 9 6 0 10 -7 10 -16z m124 -80 c23 -9 19
-26 -4 -19 -13 4 -33 -2 -54 -14 -18 -12 -46 -21 -62 -20 -16 0 -23 3 -15 6 8
3 30 16 49 29 35 24 58 29 86 18z m196 -14 c-11 -21 -30 -27 -30 -10 0 7 -14
9 -37 5 -38 -6 -38 -6 -13 9 14 8 40 15 58 16 30 0 32 -2 22 -20z m-200 -26
c0 -2 -12 -4 -27 -4 -21 0 -24 3 -14 9 13 8 41 5 41 -5z m-13 -156 c47 -52 57
-87 54 -193 -3 -135 -5 -155 -13 -155 -4 0 -15 24 -23 54 -23 79 -81 131 -156
141 -44 5 -35 -9 16 -24 51 -15 115 -78 114 -114 l0 -22 -10 24 c-5 13 -20 32
-34 43 -14 11 -31 25 -38 32 -20 20 -81 45 -125 52 -71 11 -47 24 46 23 63 0
99 -6 131 -20 24 -10 46 -19 48 -19 3 0 3 29 1 65 -3 46 -10 73 -26 94 -12 17
-22 33 -22 36 0 12 18 4 37 -17z m-8 -121 c1 -27 0 -27 -26 -14 -16 8 -34 12
-40 10 -20 -7 -15 5 20 49 l32 40 6 -28 c4 -16 7 -41 8 -57z m51 -241 c0 -3
-4 -8 -10 -11 -5 -3 -10 -1 -10 4 0 6 5 11 10 11 6 0 10 -2 10 -4z"/>
<path d="M1591 1604 c0 -11 3 -14 6 -6 3 7 2 16 -1 19 -3 4 -6 -2 -5 -13z"/>
</g>
</svg>
