<svg id="Layer_1" data-name="Layer 1" xmlns="http://www.w3.org/2000/svg" viewBox="0 0 55 55"><defs><style>.cls-1{fill:#ffd3b3;}.cls-2{fill:#fcb98b;}.cls-3{fill:#5a4146;}.cls-4{fill:#694b4b;}.cls-5{fill:#466089;}.cls-6{fill:#365e7d;}.cls-7{fill:#edeff1;}.cls-8{fill:#ffe352;}.cls-9{fill:#2b4d66;}.cls-10{fill:#d3d3d3;}.cls-11{fill:#959cb5;}.cls-12{fill:#707487;}.cls-13{fill:#afb9d2;}.cls-14{fill:#80d6fb;}.cls-15{fill:none;}</style></defs><path class="cls-1" d="M27.5,19.39H24.43v4.06l3.07,3.07,3.07-3.07V19.39Z"/><path class="cls-2" d="M24.43,20.93a7.47,7.47,0,0,0,6.14,0V19.28H24.43Z"/><path class="cls-1" d="M20.92,9.64h-.76a1.1,1.1,0,0,0-1.09,1.21L19.29,13a1.1,1.1,0,0,0,1.09,1h.54Z"/><path class="cls-1" d="M34.07,9.64h.76a1.09,1.09,0,0,1,1.09,1.21L35.7,13a1.09,1.09,0,0,1-1.09,1h-.54Z"/><path class="cls-1" d="M27.5,6.79H20.92v7.35a6.58,6.58,0,0,0,13.15,0V6.79Z"/><path class="cls-2" d="M25.55,9,25,8.6a1.52,1.52,0,0,0-.87-.27H22a2.54,2.54,0,0,0-1,.22v5.59a6.44,6.44,0,0,0,.88,3.26,2.45,2.45,0,0,0,.34-.31h1.14a1.15,1.15,0,0,0,0-2.3H21.69L21,13.32l.45-1.91,2.54-.85.43.26a1.1,1.1,0,0,0,.56.16,1.07,1.07,0,0,0,.85-.42A1.13,1.13,0,0,0,26,9.73,1.09,1.09,0,0,0,25.55,9Z"/><path class="cls-2" d="M29.45,9,30,8.6a1.52,1.52,0,0,1,.88-.27H33a2.49,2.49,0,0,1,1,.22v5.59a6.53,6.53,0,0,1-.87,3.26,2,2,0,0,1-.34-.31H31.72a1.15,1.15,0,1,1,0-2.3h1.59l.74-1.47-.46-1.91-2.53-.85-.44.26a1.07,1.07,0,0,1-1.41-.26A1.08,1.08,0,0,1,29,9.73,1.05,1.05,0,0,1,29.45,9Z"/><path class="cls-2" d="M28.21,15.83H26.68l.16-1.92.66.06-.1,1.2h.81Z"/><path class="cls-3" d="M23.55,6.79A3.17,3.17,0,0,1,22,9.64l-1.1,2.19V9.64h-.76V5.48h3.39Z"/><path class="cls-4" d="M24.43,0h4.71a3.51,3.51,0,0,1,3.51,3.51A2.19,2.19,0,0,1,34.84,5.7V9.64h-.77v2.19L33,9.64a3.19,3.19,0,0,1-1.54-2.85A10.86,10.86,0,0,1,26,8c-4.09,0-8.21-1.57-8.21-3.94V2.63A2.63,2.63,0,0,1,20.38,0Z"/><path class="cls-2" d="M26.81,18.23h-.17l0-.66s1.73.08,2.32-.8l.55.36A3.4,3.4,0,0,1,26.81,18.23Z"/><path class="cls-5" d="M34.07,11.83,33,9.64a3.35,3.35,0,0,1-1.21-1.31H33a2.69,2.69,0,0,1,1.35.37l.46.28v.66h-.77Z"/><path class="cls-1" d="M29.7,9.37,30.28,9a1.11,1.11,0,0,1,.63-.19H33a2.13,2.13,0,0,1,1.12.31l1.33.79a2.14,2.14,0,0,1,.59.53l2.6,3.3-2.41,3.61-1,.19a2.33,2.33,0,0,1-2.21-.8l-.33-.48H31.31a.31.31,0,0,1-.31-.3.72.72,0,0,1,.72-.69h1.86l.93-1.86-.35-1.47a1.52,1.52,0,0,0-1-1.1l-1.51-.5a1.48,1.48,0,0,0-1.23.13.66.66,0,0,1-.85-.13.63.63,0,0,1,.13-.93Z"/><path class="cls-6" d="M55,26.9a5.21,5.21,0,0,1-5.21,5.21h-8.6A2.19,2.19,0,0,0,39,34.3V53.91A1.09,1.09,0,0,1,37.91,55H17.09A1.09,1.09,0,0,1,16,53.91V34.3a2.19,2.19,0,0,0-2.19-2.19H5.21a5.22,5.22,0,0,1-3.07-9.43l12-8.74,3.76,5.26L9.42,25.09H26.07l1.43,1.43,1.42-1.43H45.58L37.07,19.2l3.75-5.26,12,8.74A5.22,5.22,0,0,1,55,26.9Z"/><path class="cls-7" d="M35.76,17.83l1.56,1,3.28-4.58L39,13.15Z"/><circle class="cls-8" cx="39.55" cy="18.86" r="0.88"/><path class="cls-9" d="M33.3,25.09h2.63l-2.08,5,1,2.2L27.5,43.1Z"/><path class="cls-9" d="M30.11,49.67h6.57v.88H30.11Z"/><path class="cls-1" d="M25.3,9.37,24.71,9a1.06,1.06,0,0,0-.62-.19H22a2.14,2.14,0,0,0-1.13.31l-1.32.79a2.33,2.33,0,0,0-.6.53l-2.6,3.3,2.41,3.61,1,.19a2.32,2.32,0,0,0,2.21-.8l.34-.48h1.45a.3.3,0,0,0,.3-.3.71.71,0,0,0-.71-.69H21.42l-.93-1.86.35-1.47a1.52,1.52,0,0,1,1-1.1l1.51-.5a1.45,1.45,0,0,1,1.22.13.67.67,0,0,0,.86-.13.64.64,0,0,0-.13-.93Z"/><path class="cls-5" d="M9.42,25.09,8.11,26.3l2.08-1.21Z"/><path class="cls-7" d="M19.24,17.83l-1.57,1L14.4,14.26,16,13.15Z"/><circle class="cls-8" cx="15.45" cy="18.86" r="0.88"/><path class="cls-9" d="M21.69,25.09H19.07l2.07,5-1,2.2L27.5,43.1Z"/><path class="cls-9" d="M18.31,49.67h6.58v.88H18.31Z"/><path class="cls-7" d="M21.69,25.09l5.81,18,5.8-18H28.92L27.5,26.52l-1.43-1.43Z"/><path class="cls-10" d="M30.57,23.45,27.5,26.52l-3.07-3.07-2.19,1.64h-.55l3.39,5,2.06-2.92L27.5,27l.36.18,2.06,2.92,3.38-5h-.54Z"/><path class="cls-7" d="M24.43,23.45l-2.19,1.64,2.85,4.25,1.75-2.5.66-.32Z"/><path class="cls-7" d="M30.57,23.45l2.19,1.64-2.85,4.25-1.75-2.5-.66-.32Z"/><path class="cls-11" d="M28.16,26.84l-.66-.32-.66.32L25.34,29l1.08,1.48h2.16L29.66,29Z"/><path class="cls-12" d="M29.21,28.88a2.13,2.13,0,0,1-3.43,0l-.19-.26-.25.36,1.08,1.48h2.16L29.66,29l-.26-.36Z"/><path class="cls-13" d="M28.58,30.46l.9,6.5-2,6.14-2-6.14.9-6.5Z"/><path class="cls-12" d="M28.27,31.44h-.22c0-.81-.22-1-.3-1h-.22c-.07,0-.3.21-.3,1H27c0-1.2.46-1.24.51-1.24h.22c.06,0,.52,0,.52,1.24Z"/><path class="cls-9" d="M27.5,10.63H24.76v2.74h1.75l1-.66,1,.66h1.76V10.63Z"/><circle class="cls-6" cx="31.44" cy="13.37" r="3.29"/><circle class="cls-14" cx="31.44" cy="13.37" r="2.41"/><circle class="cls-6" cx="27.5" cy="11.18" r="0.77"/><circle class="cls-6" cx="23.55" cy="13.37" r="3.29"/><circle class="cls-14" cx="23.55" cy="13.37" r="2.41"/><rect class="cls-15" width="55" height="55"/><rect class="cls-15" width="55" height="55"/></svg>