<svg id="Layer_1" data-name="Layer 1" xmlns="http://www.w3.org/2000/svg" viewBox="0 0 55 55"><defs><style>.cls-1{fill:#ffe85f;}.cls-2{fill:#ffcf48;}.cls-3{fill:#616270;}.cls-4{fill:#5a4146;}.cls-5{fill:#694b4b;}.cls-6{fill:#e6af78;}.cls-7{fill:#d29b6e;}.cls-8{fill:#707487;}.cls-9{fill:#afb9d2;}.cls-10{fill:#f0c087;}.cls-11{fill:#c7cfe2;}.cls-12{fill:#959cb5;}.cls-13{fill:#ff507d;}.cls-14{fill:#5b5d6e;}.cls-15{fill:#d23c69;}.cls-16{fill:none;}</style></defs><path class="cls-1" d="M54.6,17.16A14.54,14.54,0,0,1,40.08,31.68c-.52,0-1,0-1.53-.08a14.52,14.52,0,0,1,0-28.88c.5-.05,1-.08,1.53-.08A14.54,14.54,0,0,1,54.6,17.16Z"/><path class="cls-2" d="M54.6,17.16A14.54,14.54,0,0,1,40.08,31.68c-.52,0-1,0-1.53-.08a14.52,14.52,0,0,0,0-28.88c.5-.05,1-.08,1.53-.08A14.54,14.54,0,0,1,54.6,17.16Z"/><path class="cls-3" d="M45.57,12.69A5.57,5.57,0,0,0,34.45,13a1.53,1.53,0,1,0,3.06,0,2.47,2.47,0,0,1,.79-1.82,2.51,2.51,0,0,1,1.88-.68,2.55,2.55,0,0,1,2.34,2.34,2.48,2.48,0,0,1-1.66,2.52,3.55,3.55,0,0,0-2.37,3.31,1.53,1.53,0,1,0,3.06,0,.48.48,0,0,1,.34-.43A5.58,5.58,0,0,0,45.57,12.69Z"/><circle class="cls-3" cx="40.02" cy="24.77" r="1.53"/><path class="cls-4" d="M37.46,30.48v.59a6.74,6.74,0,0,0,.35,2.13l1.33,4h2.53V28H40A2.53,2.53,0,0,0,37.46,30.48Z"/><path class="cls-5" d="M49,32.23l-1.42,5-6.73-5.89a1.69,1.69,0,0,1-1.69-1.68h0a2.53,2.53,0,0,1,2.53-2.53h5.89a1.69,1.69,0,0,1,1.68,1.69v1.58A6.83,6.83,0,0,1,49,32.23Z"/><rect class="cls-6" x="40.83" y="39.74" width="5.05" height="3.72"/><path class="cls-7" d="M40.83,41.28a6.6,6.6,0,0,0,5,0V39.74h-5v1.54Z"/><path class="cls-8" d="M49.93,42.94l-4.06-1.16-2.52,1.67-2.52-1.67-4.06,1.16a2.51,2.51,0,0,0-1.83,2.42v6.16a.84.84,0,0,0,.84.84H50.92a.84.84,0,0,0,.84-.84V45.36A2.51,2.51,0,0,0,49.93,42.94Z"/><polygon class="cls-9" points="44.19 52.36 42.51 52.36 42.93 43.46 43.77 43.46 44.19 52.36"/><path class="cls-10" d="M43.35,40.58h0a5,5,0,0,1-5.05-5v-1a1.72,1.72,0,0,1,.49-1.19l1.53-1.52a1.66,1.66,0,0,1,1.22-.5c2.69.09,5.07.66,6.37,1.93a1.69,1.69,0,0,1,.49,1.2v1.07A5,5,0,0,1,43.35,40.58Z"/><path class="cls-6" d="M40.83,34.75a1.68,1.68,0,0,1,1.78-1.68,17.68,17.68,0,0,1,5.77,1.14,1.65,1.65,0,0,0-.47-1c-1.3-1.27-3.68-1.84-6.37-1.93h0a1.66,1.66,0,0,0-1.22.5l-1.53,1.52a1.72,1.72,0,0,0-.49,1.19v1A5.05,5.05,0,0,0,42,40.38a5,5,0,0,1-1.12-3.17V34.75Z"/><path class="cls-11" d="M48.4,47.87a2.52,2.52,0,0,1,.74-1.78l2.16-2.17a2.49,2.49,0,0,1,.46,1.44v6.16a.84.84,0,0,1-.84.84H48.4V47.87Z"/><path class="cls-12" d="M43.77,45.14h-.84a.42.42,0,0,1-.42-.42V43.46h1.68v1.26A.42.42,0,0,1,43.77,45.14Z"/><path class="cls-11" d="M43.35,43.45l-1.43,1.09a.49.49,0,0,1-.74-.16L39.9,42.05l.51-.79a.34.34,0,0,1,.51-.06Z"/><path class="cls-11" d="M43.35,43.45l1.43,1.09a.51.51,0,0,0,.75-.16l1.28-2.33-.52-.79a.34.34,0,0,0-.51-.06Z"/><path class="cls-4" d="M14.66,40.23a30.28,30.28,0,0,1-1.41-6.89,6.1,6.1,0,0,0-6-5.89,6.1,6.1,0,0,0-6,5.89A30.28,30.28,0,0,1-.14,40.23.84.84,0,0,0,.3,41.3a16.48,16.48,0,0,0,4.4,1.3H9.83a16.63,16.63,0,0,0,4.39-1.3A.84.84,0,0,0,14.66,40.23Z"/><path class="cls-5" d="M14.22,41.3a.84.84,0,0,0,.44-1.07,30.28,30.28,0,0,1-1.41-6.89,6.1,6.1,0,0,0-6-5.89h0A2.57,2.57,0,0,0,6,32.21a1.37,1.37,0,0,0,.21.11L8.11,42.6H9.83A16.63,16.63,0,0,0,14.22,41.3Z"/><path class="cls-6" d="M13.35,44.28l-2.73-1.36a1.67,1.67,0,0,1-.93-1.5V38.89h-5v2.53a1.67,1.67,0,0,1-.93,1.5L1,44.28A2.54,2.54,0,0,0-.4,46.54v5a.84.84,0,0,0,.84.85H13.9a.84.84,0,0,0,.84-.85v-5A2.54,2.54,0,0,0,13.35,44.28Z"/><path class="cls-7" d="M7.17,42.26a6.7,6.7,0,0,0,2.57-.52,1.77,1.77,0,0,1-.05-.32V38.89h-5v2.53a1.65,1.65,0,0,1,0,.32A6.7,6.7,0,0,0,7.17,42.26Z"/><path class="cls-8" d="M13.35,44.28l-1.94-1a5,5,0,0,1-8.48,0L1,44.28A2.54,2.54,0,0,0-.4,46.54v5a.84.84,0,0,0,.84.85H13.9a.84.84,0,0,0,.84-.85v-5A2.54,2.54,0,0,0,13.35,44.28Z"/><path class="cls-10" d="M7.17,40.58h0a5.05,5.05,0,0,1-5-4.4.85.85,0,0,1,.45-.87,7.25,7.25,0,0,0,1.49-1,4.85,4.85,0,0,0,1.15-1.51.85.85,0,0,1,1-.47,14.54,14.54,0,0,1,5.71,2.93.81.81,0,0,1,.29.68A5,5,0,0,1,7.17,40.58Z"/><path class="cls-6" d="M11.91,35.25A14.54,14.54,0,0,0,6.2,32.32a.85.85,0,0,0-1,.47,4.9,4.9,0,0,1-.77,1.12h0a3.45,3.45,0,0,1-.38.39,7.25,7.25,0,0,1-1.49,1,.85.85,0,0,0-.45.87A5.06,5.06,0,0,0,6.4,40.52a3.71,3.71,0,0,1-1.76-3.31V36a6,6,0,0,0,.58-.45,6.8,6.8,0,0,0,1.21-1.42,12.62,12.62,0,0,1,4.38,2.38l1,.94a4.9,4.9,0,0,0,.37-1.53A.81.81,0,0,0,11.91,35.25Z"/><path class="cls-11" d="M.11,45A2.46,2.46,0,0,0-.4,46.54v5a.84.84,0,0,0,.84.85H3V48.12a1.69,1.69,0,0,0-.63-1.32Z"/><path class="cls-13" d="M37.77,43.14l-7-2.56-5.05,1.68-5.05-1.68-7,2.56a3.35,3.35,0,0,0-2.21,3.16v5.22a.84.84,0,0,0,.84.84H39.14a.84.84,0,0,0,.84-.84V46.3A3.35,3.35,0,0,0,37.77,43.14Z"/><polygon class="cls-8" points="24.8 43.94 24 52.36 27.36 52.36 26.56 43.94 24.8 43.94"/><path class="cls-14" d="M26.56,45.1H24.8a.59.59,0,0,1-.59-.59V42.26h2.94v2.25A.59.59,0,0,1,26.56,45.1Z"/><path class="cls-15" d="M39.08,44A3.34,3.34,0,0,1,40,46.3v5.21a.84.84,0,0,1-.84.85h-4.2V49.54a3.37,3.37,0,0,1,1-2.38Z"/><path class="cls-4" d="M34.94,23.22v-7a1.69,1.69,0,0,0-1.69-1.68H23.16a6.74,6.74,0,0,0-6.74,6.73v2a8.24,8.24,0,0,0,.44,2.66l.28.84a2.73,2.73,0,0,1,.13.8V28H34.09v-.43a2.73,2.73,0,0,1,.13-.8l.28-.84A8.24,8.24,0,0,0,34.94,23.22Z"/><path class="cls-5" d="M20.63,17.91a3.42,3.42,0,0,0,3.42,3.42h.47L24.75,28h9.34v-.43a2.73,2.73,0,0,1,.13-.8l.28-.84a8.24,8.24,0,0,0,.44-2.66v-7a1.69,1.69,0,0,0-1.69-1.68h-9.2A3.42,3.42,0,0,0,20.63,17.91Z"/><rect class="cls-6" x="20.63" y="34.69" width="10.1" height="7.57"/><path class="cls-7" d="M20.63,37.53a10.06,10.06,0,0,0,10.1,0V34.69H20.63v2.84Z"/><path class="cls-15" d="M25.68,42.26,23,44.94a.85.85,0,0,1-1.27-.08L19,41.19l.73-1.53a.84.84,0,0,1,1.2-.36Z"/><path class="cls-15" d="M25.68,42.26l2.68,2.68a.85.85,0,0,0,1.27-.08l2.78-3.67-.73-1.53a.84.84,0,0,0-1.2-.36Z"/><path class="cls-10" d="M25.68,37.21h0a8.41,8.41,0,0,1-8.41-8.41v-1a1.66,1.66,0,0,1,.49-1.19l.7-.7A1.69,1.69,0,0,0,19,24.73v-2a.84.84,0,0,1,.64-.82c2-.47,8.18-1.58,12.4,1.51a1.11,1.11,0,0,1,.42.88v.44a1.69,1.69,0,0,0,.49,1.19l.7.7a1.66,1.66,0,0,1,.49,1.19v1A8.41,8.41,0,0,1,25.68,37.21Z"/><path class="cls-6" d="M32,23.42c-3-2.18-6.9-2.28-9.68-2a23.64,23.64,0,0,0-2.72.46.84.84,0,0,0-.64.82v2a1.69,1.69,0,0,1-.49,1.19l-.7.7a1.66,1.66,0,0,0-.49,1.19v1a8.4,8.4,0,0,0,7.39,8.34,8.38,8.38,0,0,1-2.35-5.82V25.17a1.69,1.69,0,0,1,1.48-1.67c2-.25,5.72-.41,8.62,1.23v-.44A1.08,1.08,0,0,0,32,23.42Z"/><path class="cls-15" d="M12.28,44a3.34,3.34,0,0,0-.9,2.29v5.21a.84.84,0,0,0,.84.85h4.2V49.54a3.37,3.37,0,0,0-1-2.38Z"/><rect class="cls-16" x="-0.4" width="55" height="55"/></svg>